<?xml version="1.0" standalone="no"?>
<!DOCTYPE svg PUBLIC "-//W3C//DTD SVG 20010904//EN"
 "http://www.w3.org/TR/2001/REC-SVG-20010904/DTD/svg10.dtd">
<svg version="1.0" xmlns="http://www.w3.org/2000/svg"
 width="32.000000pt" height="32.000000pt" viewBox="0 0 32.000000 32.000000"
 preserveAspectRatio="xMidYMid meet">

<g transform="translate(0.000000,32.000000) scale(0.100000,-0.100000)"
fill="#000000" stroke="none">
<path d="M92 288 c-13 -13 -16 -57 -4 -74 4 -6 16 -15 26 -21 19 -10 18 -11
-2 -17 -22 -7 -72 -81 -72 -107 1 -35 18 -43 102 -44 112 -3 140 20 101 83
l-17 27 22 -19 c20 -18 23 -18 47 -2 28 18 34 63 10 72 -26 10 -62 -5 -68 -27
-6 -22 -6 -22 -37 5 -17 14 -38 26 -46 26 -13 0 -13 2 0 16 19 18 21 65 4 82
-7 7 -21 12 -33 12 -12 0 -26 -5 -33 -12z m56 -37 c4 -26 -13 -42 -35 -34 -14
5 -18 45 -6 57 14 14 38 0 41 -23z m29 -96 c12 -8 31 -31 43 -50 31 -50 18
-60 -77 -60 -92 0 -100 10 -58 74 23 34 35 43 65 50 3 0 15 -6 27 -14z m121
-2 c-5 -26 -38 -29 -38 -4 0 15 6 21 21 21 14 0 19 -5 17 -17z"/>
<path d="M196 261 c-10 -11 -16 -31 -14 -48 4 -40 50 -45 74 -9 15 24 15 28 0
51 -20 30 -37 32 -60 6z m42 -33 c-4 -29 -38 -38 -38 -10 0 22 8 32 27 32 9 0
13 -8 11 -22z"/>
<path d="M12 228 c-7 -7 -12 -22 -12 -34 0 -51 72 -61 78 -11 6 47 -36 75 -66
45z m46 -36 c2 -14 -2 -22 -12 -22 -19 0 -29 17 -22 36 8 22 30 12 34 -14z"/>
</g>
</svg>
